<svg xmlns="http://www.w3.org/2000/svg" xmlns:xlink="http://www.w3.org/1999/xlink" version="1.1" id="Layer_1" x="0px" y="0px" width="100%" viewBox="0 0 512 512" enable-background="new 0 0 512 512" xml:space="preserve">
<path fill="#ffffff" opacity="1.000000" stroke="none" d=" M345.000000,513.000000   C230.027939,513.000000 115.555870,513.000000 1.041900,513.000000   C1.041900,342.402924 1.041900,171.805817 1.041900,1.104355   C171.555405,1.104355 342.110901,1.104355 512.833191,1.104355   C512.833191,171.666534 512.833191,342.333252 512.833191,513.000000   C457.139069,513.000000 401.319550,513.000000 345.000000,513.000000  M321.030365,249.901306   C320.917297,261.913635 320.725372,274.030121 312.871979,284.043854   C308.909973,289.095734 303.928070,293.341309 299.480865,298.021271   C296.264771,301.405731 296.230377,305.385590 297.876373,309.448669   C299.680511,313.902039 303.748260,313.240265 307.212860,312.837952   C309.115814,312.616974 311.042725,311.133972 312.609772,309.807587   C315.503906,307.357941 318.141144,304.604797 320.958496,302.915588   C320.972290,311.248474 320.804626,319.587616 321.090820,327.911163   C321.202393,331.156494 320.022369,333.126617 317.579987,334.947174   C301.118561,347.217773 284.778931,359.652618 268.260437,371.845367   C260.806030,377.347656 256.652405,383.996124 256.848083,393.690826   C257.050079,403.699493 261.562195,410.803223 270.045197,414.811584   C278.747131,418.923370 287.862274,418.517609 295.958618,412.502838   C315.481018,397.999725 334.771820,383.179871 354.459045,368.905670   C364.481567,361.638916 370.181091,353.264587 369.240479,340.076324   C368.199799,325.485260 369.023193,310.761292 369.819733,296.374603   C377.767426,296.583069 385.714081,296.869263 393.663147,296.977631   C401.266602,297.081299 408.872559,297.000000 416.701447,297.000000   C416.825836,299.090912 416.986389,300.550995 416.988220,302.011230   C417.006897,316.998779 416.975983,331.986420 417.031647,346.973755   C417.038300,348.756470 417.400055,350.552216 417.730652,352.316956   C419.346100,360.939606 430.719452,368.921356 440.171875,369.359772   C453.624451,369.983795 465.815552,357.691681 465.272980,344.106842   C464.303497,319.832428 465.012146,295.491486 464.994904,271.178345   C464.986328,259.073700 455.000519,249.047287 442.960175,249.000748   C428.974182,248.946701 414.988159,248.897446 401.001678,247.938080   C400.945892,242.958374 400.890106,237.978653 400.981598,232.072037   C400.932129,213.715576 400.882660,195.359100 400.971558,176.122711   C401.037415,173.747711 401.103271,171.372711 402.079407,168.999908   C407.052887,168.944427 412.026398,168.888931 417.927429,168.977081   C426.242432,168.984711 434.576843,169.321365 442.862488,168.832184   C446.018433,168.645844 449.821991,167.351395 452.033691,165.217819   C465.914459,151.827301 479.461182,138.089096 493.049103,124.397125   C498.188873,119.218018 497.986786,112.852417 496.106018,106.516449   C492.685577,94.993538 475.541260,94.365585 469.067200,101.293724   C461.237274,109.672867 452.379730,117.134247 444.949463,125.832146   C437.742493,134.268692 429.846161,139.260345 418.481812,137.029419   C418.014801,136.937744 417.495056,137.114731 416.071991,137.018524   C407.057556,137.067780 398.043091,137.117035 388.115021,137.028168   C384.423370,136.985672 380.731689,136.943161 377.349091,136.226440   C391.203796,133.497009 401.593323,119.727318 401.261078,103.690254   C400.920135,87.231178 385.956329,71.122360 368.103607,73.017456   C350.854431,71.941048 335.252228,88.319725 337.023010,105.856781   C336.693726,112.922516 339.075287,118.941315 343.080902,124.787743   C347.567932,131.336853 354.225342,134.022079 360.026947,136.984589   C353.766846,137.038147 347.506714,137.091705 340.281586,137.059692   C328.522644,137.095062 316.763672,137.130432 304.077118,137.018005   C295.919342,137.011978 287.734344,136.616699 279.616577,137.183640   C276.170166,137.424316 272.054077,138.837448 269.629089,141.163498   C255.815765,154.413223 242.454300,168.132843 228.865326,181.618286   C224.323059,186.125961 223.970230,192.917343 225.905975,199.506393   C229.275391,210.975418 246.452560,211.631454 252.896729,204.743103   C260.853821,196.237564 269.854706,188.662643 277.387054,179.818970   C284.522736,171.441040 292.419830,166.870529 303.521484,168.973541   C303.990234,169.062332 304.509125,168.886658 305.927307,168.986069   C310.914215,169.014877 315.901093,169.043671 320.987396,169.995987   C321.047150,190.997452 321.106903,211.998932 321.027985,233.924088   C321.073547,238.943649 321.119110,243.963211 321.030365,249.901306  M77.018913,156.039307   C77.018913,152.472198 77.018913,148.905106 77.018913,144.092514   C73.548309,145.260132 70.812744,146.180450 67.467491,146.794464   C58.837814,138.222946 50.363956,129.486649 41.528786,121.132462   C34.555038,114.538353 26.670912,109.158180 17.309404,105.452293   C17.171507,106.750359 17.013912,107.541687 17.013809,108.333031   C17.002495,194.320648 16.987352,280.308319 17.104982,366.295746   C17.107565,368.183838 18.177036,370.520142 19.521648,371.887238   C33.076164,385.668152 46.716953,399.367340 60.546741,412.871094   C62.551304,414.828369 65.620445,416.630676 68.298729,416.789581   C76.767761,417.292023 85.288681,417.098145 93.779327,416.838989   C94.878632,416.805450 96.742653,414.884003 96.852104,413.706818   C97.598152,405.683197 94.924965,398.649658 89.354935,392.918243   C80.877640,384.195282 72.162468,375.703949 63.589005,367.073822   C58.779190,362.232239 52.229267,358.065613 49.798817,352.210358   C47.368645,346.355835 49.367287,338.757385 48.905407,331.958679   C48.590294,327.320312 49.604523,323.851776 54.653881,322.178619   C64.148621,329.261566 74.329597,334.884552 86.254311,336.585144   C89.651711,337.069641 93.114326,337.096924 96.488670,337.329895   C96.942764,340.236481 97.228294,342.840027 97.768150,345.389740   C100.592659,358.729675 114.747200,370.038361 130.998016,369.268463   C146.233047,368.546722 161.131622,354.808014 161.065979,339.139069   C160.884521,295.811646 161.018280,252.482895 161.860733,209.022003   C171.072327,208.904114 176.992081,203.044189 176.998108,194.017014   C177.005783,182.524078 177.014282,171.031128 176.995331,159.538239   C176.980804,150.725479 170.242310,144.552261 160.861450,145.330658   C160.861450,155.806259 160.861450,166.351181 160.861450,176.881790   C152.618042,176.803574 145.791138,178.964020 139.334030,183.964569   C133.193817,181.657150 127.208870,178.621948 120.865120,177.268448   C115.619743,176.149307 109.921837,176.663635 104.477417,177.106110   C99.342476,177.523422 95.753960,175.772675 92.357628,172.015015   C87.580956,166.730164 82.248405,161.947723 77.018913,156.039307  z"/>
<path fill="#555A6E" opacity="1.000000" stroke="none" d=" M161.027420,209.154663   C161.018280,252.482895 160.884521,295.811646 161.065979,339.139069   C161.131622,354.808014 146.233047,368.546722 130.998016,369.268463   C114.747200,370.038361 100.592659,358.729675 97.768150,345.389740   C97.228294,342.840027 96.942764,340.236481 96.488670,337.329895   C93.114326,337.096924 89.651711,337.069641 86.254311,336.585144   C74.329597,334.884552 64.148621,329.261566 54.273739,321.692780   C53.111248,320.150818 52.432930,318.995178 51.531380,318.053131   C28.033558,293.500275 26.582411,258.363373 48.128635,232.424194   C49.814941,230.394058 49.697239,229.159012 47.942871,227.412735   C45.711765,225.191910 43.508865,222.884872 41.659420,220.348404   C33.198875,208.744965 32.472324,195.390152 32.906773,181.700333   C33.028065,177.878372 34.404556,176.751968 37.964298,176.964172   C45.586700,177.418594 53.221375,177.667114 60.911758,178.463684   C60.980812,183.236130 60.960041,187.545151 61.003227,191.853531   C61.108307,202.337021 67.626198,208.921585 78.096771,208.985443   C88.370895,209.048111 98.645851,208.972565 109.393448,208.970551   C116.270424,208.970108 122.674393,208.956741 129.541733,208.963287   C140.345871,209.040359 150.686646,209.097504 161.027420,209.154663  M121.239906,264.076019   C122.697502,263.025665 124.333382,262.151917 125.580467,260.893005   C129.954666,256.477325 129.897339,253.494705 125.570900,249.133224   C123.588470,247.134735 121.847580,244.732117 119.514198,243.299271   C117.706894,242.189453 114.906891,241.466599 112.970093,242.027786   C107.155724,243.712570 103.910538,250.208466 105.449821,255.845444   C107.298798,262.616547 113.098160,265.883240 121.239906,264.076019  z"/>
<path fill="#463c4b" opacity="1.000000" stroke="none" d=" M60.851025,177.999969   C53.221375,177.667114 45.586700,177.418594 37.964298,176.964172   C34.404556,176.751968 33.028065,177.878372 32.906773,181.700333   C32.472324,195.390152 33.198875,208.744965 41.659420,220.348404   C43.508865,222.884872 45.711765,225.191910 47.942871,227.412735   C49.697239,229.159012 49.814941,230.394058 48.128635,232.424194   C26.582411,258.363373 28.033558,293.500275 51.531380,318.053131   C52.432930,318.995178 53.111248,320.150818 53.965660,321.535736   C49.604523,323.851776 48.590294,327.320312 48.905407,331.958679   C49.367287,338.757385 47.368645,346.355835 49.798817,352.210358   C52.229267,358.065613 58.779190,362.232239 63.589005,367.073822   C72.162468,375.703949 80.877640,384.195282 89.354935,392.918243   C94.924965,398.649658 97.598152,405.683197 96.852104,413.706818   C96.742653,414.884003 94.878632,416.805450 93.779327,416.838989   C85.288681,417.098145 76.767761,417.292023 68.298729,416.789581   C65.620445,416.630676 62.551304,414.828369 60.546741,412.871094   C46.716953,399.367340 33.076164,385.668152 19.521648,371.887238   C18.177036,370.520142 17.107565,368.183838 17.104982,366.295746   C16.987352,280.308319 17.002495,194.320648 17.013809,108.333031   C17.013912,107.541687 17.171507,106.750359 17.309404,105.452293   C26.670912,109.158180 34.555038,114.538353 41.528786,121.132462   C50.363956,129.486649 58.837814,138.222946 67.623215,147.246277   C62.613354,151.933060 60.588547,157.394760 60.940056,164.026367   C61.186180,168.669617 60.899658,173.341095 60.851025,177.999969  z"/>
<path fill="#555A6E" opacity="1.000000" stroke="none" d=" M401.002167,248.846100   C414.988159,248.897446 428.974182,248.946701 442.960175,249.000748   C455.000519,249.047287 464.986328,259.073700 464.994904,271.178345   C465.012146,295.491486 464.303497,319.832428 465.272980,344.106842   C465.815552,357.691681 453.624451,369.983795 440.171875,369.359772   C430.719452,368.921356 419.346100,360.939606 417.730652,352.316956   C417.400055,350.552216 417.038300,348.756470 417.031647,346.973755   C416.975983,331.986420 417.006897,316.998779 416.988220,302.011230   C416.986389,300.550995 416.825836,299.090912 416.701447,297.000000   C408.872559,297.000000 401.266602,297.081299 393.663147,296.977631   C385.714081,296.869263 377.767426,296.583069 369.185791,295.989563   C358.023712,290.374084 352.460907,282.200012 352.948547,270.124756   C353.230255,263.149231 352.996490,256.152893 353.458618,249.106064   C358.945953,248.975967 363.969421,248.905716 369.458801,248.894775   C380.283844,248.918091 390.643005,248.882095 401.002167,248.846100  z"/>
<path fill="#463c4b" opacity="1.000000" stroke="none" d=" M352.994751,249.165909   C352.996490,256.152893 353.230255,263.149231 352.948547,270.124756   C352.460907,282.200012 358.023712,290.374084 368.793304,295.849854   C369.023193,310.761292 368.199799,325.485260 369.240479,340.076324   C370.181091,353.264587 364.481567,361.638916 354.459045,368.905670   C334.771820,383.179871 315.481018,397.999725 295.958618,412.502838   C287.862274,418.517609 278.747131,418.923370 270.045197,414.811584   C261.562195,410.803223 257.050079,403.699493 256.848083,393.690826   C256.652405,383.996124 260.806030,377.347656 268.260437,371.845367   C284.778931,359.652618 301.118561,347.217773 317.579987,334.947174   C320.022369,333.126617 321.202393,331.156494 321.090820,327.911163   C320.804626,319.587616 320.972290,311.248474 320.980896,302.095764   C321.603210,300.308228 322.085480,299.238647 322.821198,298.388367   C330.537537,289.470795 335.386230,279.219330 336.554443,267.476410   C337.160767,261.381561 336.948883,255.205307 337.565918,249.041397   C343.015076,249.066605 348.004913,249.116257 352.994751,249.165909  z"/>
<path fill="#A5C3DC" opacity="1.000000" stroke="none" d=" M321.166656,233.000397   C321.106903,211.998932 321.047150,190.997452 321.412415,169.514557   C326.144470,169.022263 330.451508,169.005768 334.758545,169.001541   C349.452789,168.987137 356.272461,158.991486 351.549011,145.039276   C357.604950,145.019455 363.202026,145.019455 368.683594,145.019455   C371.320435,164.978851 382.794220,176.179291 400.833191,177.002640   C400.882660,195.359100 400.932129,213.715576 400.450195,232.535797   C389.617310,233.054947 379.315826,233.110352 368.548859,233.100433   C352.444458,233.023544 336.805542,233.011963 321.166656,233.000397  z"/>
<path fill="#F0915A" opacity="1.000000" stroke="none" d=" M416.999878,137.166534   C417.495056,137.114731 418.014801,136.937744 418.481812,137.029419   C429.846161,139.260345 437.742493,134.268692 444.949463,125.832146   C452.379730,117.134247 461.237274,109.672867 469.067200,101.293724   C475.541260,94.365585 492.685577,94.993538 496.106018,106.516449   C497.986786,112.852417 498.188873,119.218018 493.049103,124.397125   C479.461182,138.089096 465.914459,151.827301 452.033691,165.217819   C449.821991,167.351395 446.018433,168.645844 442.862488,168.832184   C434.576843,169.321365 426.242432,168.984711 417.463684,168.447311   C416.999908,157.667206 416.999908,147.416885 416.999878,137.166534  z"/>
<path fill="#FAB991" opacity="1.000000" stroke="none" d=" M305.004639,168.834198   C304.509125,168.886658 303.990234,169.062332 303.521484,168.973541   C292.419830,166.870529 284.522736,171.441040 277.387054,179.818970   C269.854706,188.662643 260.853821,196.237564 252.896729,204.743103   C246.452560,211.631454 229.275391,210.975418 225.905975,199.506393   C223.970230,192.917343 224.323059,186.125961 228.865326,181.618286   C242.454300,168.132843 255.815765,154.413223 269.629089,141.163498   C272.054077,138.837448 276.170166,137.424316 279.616577,137.183640   C287.734344,136.616699 295.919342,137.011978 304.539612,137.549988   C305.002930,148.332703 305.003784,158.583450 305.004639,168.834198  z"/>
<path fill="#F0915A" opacity="1.000000" stroke="none" d=" M368.977356,73.163422   C385.956329,71.122360 400.920135,87.231178 401.261078,103.690254   C401.593323,119.727318 391.203796,133.497009 376.727661,136.593689   C371.057465,136.940872 366.008667,136.920776 360.959900,136.900696   C354.225342,134.022079 347.567932,131.336853 343.080902,124.787743   C339.075287,118.941315 336.693726,112.922516 337.551208,105.422928   C342.905151,104.992516 347.731842,105.060280 352.556335,104.985878   C362.291656,104.835739 368.825165,98.342613 368.982788,88.638611   C369.066559,83.481598 368.984528,78.321907 368.977356,73.163422  z"/>
<path fill="#F0915A" opacity="1.000000" stroke="none" d=" M161.444077,209.088333   C150.686646,209.097504 140.345871,209.040359 129.523956,208.549347   C129.114807,198.470718 133.945724,191.007996 140.042480,184.125656   C145.791138,178.964020 152.618042,176.803574 160.861450,176.881790   C160.861450,166.351181 160.861450,155.806259 160.861450,145.330658   C170.242310,144.552261 176.980804,150.725479 176.995331,159.538239   C177.014282,171.031128 177.005783,182.524078 176.998108,194.017014   C176.992081,203.044189 171.072327,208.904114 161.444077,209.088333  z"/>
<path fill="#f9b891" opacity="1.000000" stroke="none" d=" M60.911758,178.463684   C60.899658,173.341095 61.186180,168.669617 60.940056,164.026367   C60.588547,157.394760 62.613354,151.933060 67.928055,147.399429   C70.812744,146.180450 73.548309,145.260132 77.018913,144.092514   C77.018913,148.905106 77.018913,152.472198 77.024368,156.962433   C77.029823,164.154083 77.029823,170.422592 77.029823,176.600067   C97.451790,179.835312 108.582970,191.281418 108.920448,208.957657   C98.645851,208.972565 88.370895,209.048111 78.096771,208.985443   C67.626198,208.921585 61.108307,202.337021 61.003227,191.853531   C60.960041,187.545151 60.980812,183.236130 60.911758,178.463684  z"/>
<path fill="#D7E6F0" opacity="1.000000" stroke="none" d=" M305.465973,168.910126   C305.003784,158.583450 305.002930,148.332703 305.003418,137.623871   C316.763672,137.130432 328.522644,137.095062 340.989166,137.328491   C344.827911,140.084564 347.959045,142.571838 351.090210,145.059113   C356.272461,158.991486 349.452789,168.987137 334.758545,169.001541   C330.451508,169.005768 326.144470,169.022263 321.362732,169.052795   C315.901093,169.043671 310.914215,169.014877 305.465973,168.910126  z"/>
<path fill="#EF4C39" opacity="1.000000" stroke="none" d=" M351.549011,145.039276   C347.959045,142.571838 344.827911,140.084564 341.471680,137.371277   C347.506714,137.091705 353.766846,137.038147 360.493408,136.942642   C366.008667,136.920776 371.057465,136.940872 376.573120,136.930817   C380.731689,136.943161 384.423370,136.985672 388.762329,137.383362   C397.044617,140.465836 400.860291,145.686493 400.996185,153.668365   C401.083160,158.777664 401.113403,163.887894 401.169128,168.997711   C401.103271,171.372711 401.037415,173.747711 400.902374,176.562683   C382.794220,176.179291 371.320435,164.978851 368.683594,145.019455   C363.202026,145.019455 357.604950,145.019455 351.549011,145.039276  z"/>
<path fill="#473D4B" opacity="1.000000" stroke="none" d=" M109.393448,208.970551   C108.582970,191.281418 97.451790,179.835312 77.029823,176.600067   C77.029823,170.422592 77.029823,164.154083 77.091705,157.417999   C82.248405,161.947723 87.580956,166.730164 92.357628,172.015015   C95.753960,175.772675 99.342476,177.523422 104.477417,177.106110   C109.921837,176.663635 115.619743,176.149307 120.865120,177.268448   C127.208870,178.621948 133.193817,181.657150 139.688263,184.045105   C133.945724,191.007996 129.114807,198.470718 129.060608,208.529449   C122.674393,208.956741 116.270424,208.970108 109.393448,208.970551  z"/>
<path fill="#E0322D" opacity="1.000000" stroke="none" d=" M337.106598,249.065826   C336.948883,255.205307 337.160767,261.381561 336.554443,267.476410   C335.386230,279.219330 330.537537,289.470795 322.821198,298.388367   C322.085480,299.238647 321.603210,300.308228 320.944366,301.627014   C318.141144,304.604797 315.503906,307.357941 312.609772,309.807587   C311.042725,311.133972 309.115814,312.616974 307.212860,312.837952   C303.748260,313.240265 299.680511,313.902039 297.876373,309.448669   C296.230377,305.385590 296.264771,301.405731 299.480865,298.021271   C303.928070,293.341309 308.909973,289.095734 312.871979,284.043854   C320.725372,274.030121 320.917297,261.913635 321.553894,249.446594   C327.087158,249.016525 332.096863,249.041168 337.106598,249.065826  z"/>
<path fill="#f9b891" opacity="1.000000" stroke="none" d=" M368.540466,73.090439   C368.984528,78.321907 369.066559,83.481598 368.982788,88.638611   C368.825165,98.342613 362.291656,104.835739 352.556335,104.985878   C347.731842,105.060280 342.905151,104.992516 337.621460,104.982773   C335.252228,88.319725 350.854431,71.941048 368.540466,73.090439  z"/>
<path fill="#F04B37" opacity="1.000000" stroke="none" d=" M337.565918,249.041397   C332.096863,249.041168 327.087158,249.016525 321.621033,248.987335   C321.119110,243.963211 321.073547,238.943649 321.097321,233.462250   C336.805542,233.011963 352.444458,233.023544 368.545227,233.556046   C369.002380,238.996475 368.997650,243.915985 368.992920,248.835480   C363.969421,248.905716 358.945953,248.975967 353.458618,249.106064   C348.004913,249.116257 343.015076,249.066605 337.565918,249.041397  z"/>
<path fill="#A5C3DC" opacity="1.000000" stroke="none" d=" M401.624268,168.998810   C401.113403,163.887894 401.083160,158.777664 400.996185,153.668365   C400.860291,145.686493 397.044617,140.465836 389.219116,137.452423   C398.043091,137.117035 407.057556,137.067780 416.535950,137.092529   C416.999908,147.416885 416.999908,157.667206 416.999908,168.375488   C412.026398,168.888931 407.052887,168.944427 401.624268,168.998810  z"/>
<path fill="#E0322D" opacity="1.000000" stroke="none" d=" M369.458801,248.894775   C368.997650,243.915985 369.002380,238.996475 369.010742,233.621368   C379.315826,233.110352 389.617310,233.054947 400.376526,232.999252   C400.890106,237.978653 400.945892,242.958374 401.001923,248.392090   C390.643005,248.882095 380.283844,248.918091 369.458801,248.894775  z"/>
<path fill="#473D4B" opacity="1.000000" stroke="none" d=" M120.867867,264.198303   C113.098160,265.883240 107.298798,262.616547 105.449821,255.845444   C103.910538,250.208466 107.155724,243.712570 112.970093,242.027786   C114.906891,241.466599 117.706894,242.189453 119.514198,243.299271   C121.847580,244.732117 123.588470,247.134735 125.570900,249.133224   C129.897339,253.494705 129.954666,256.477325 125.580467,260.893005   C124.333382,262.151917 122.697502,263.025665 120.867867,264.198303  z"/>
</svg>