<svg xmlns="http://www.w3.org/2000/svg" xmlns:xlink="http://www.w3.org/1999/xlink" version="1.1" id="Layer_1" x="0px" y="0px" width="100%" viewBox="0 0 512 512" enable-background="new 0 0 512 512" xml:space="preserve">
<path fill="#ffffff" opacity="1.000000" stroke="none" d=" M290.000000,513.000000   C193.356796,513.000000 97.213585,513.000000 1.035192,513.000000   C1.035192,342.398438 1.035192,171.796860 1.035192,1.097646   C171.559891,1.097646 342.119843,1.097646 512.839905,1.097646   C512.839905,171.666550 512.839905,342.333252 512.839905,513.000000   C438.796844,513.000000 364.648407,513.000000 290.000000,513.000000  M471.691589,440.716217   C474.810150,435.504669 477.928741,430.293152 481.615204,424.664307   C495.484406,398.276093 499.944550,370.238037 495.849762,340.850250   C493.689270,325.344757 489.095123,310.539307 480.988190,296.218079   C479.633484,293.623260 478.486816,290.891968 476.889099,288.456573   C468.758820,276.063751 459.846100,264.170441 447.720764,255.489426   C438.111908,248.610031 428.001068,242.168030 417.385040,237.038635   C408.097015,232.550888 397.794800,230.162186 388.242859,226.261627   C408.141724,204.659836 430.923462,186.756241 456.164093,171.698654   C467.267670,165.074661 479.088928,158.949738 486.755066,147.684158   C497.778503,131.484985 500.768494,114.400360 492.958710,95.979469   C490.800934,90.889885 486.731232,89.070709 481.460266,88.970810   C475.831055,88.864113 471.508759,90.592377 468.968079,96.046745   C466.523529,101.294708 463.832001,106.439812 461.009338,111.496323   C457.594879,117.612846 452.174835,121.338455 445.216370,120.754349   C437.454529,120.102806 432.394348,115.201073 430.236053,107.639961   C425.019043,89.363678 407.279053,84.677132 392.295929,91.551750   C388.042511,93.503319 384.489105,97.009178 380.673157,99.879967   C370.801514,107.306587 353.398834,104.505341 345.723022,94.851906   C336.706451,83.512230 325.492035,75.034721 311.730743,69.756256   C299.932343,65.230698 287.860779,64.703194 275.549957,64.981491   C269.815338,65.111122 264.846191,63.502029 261.172058,58.650604   C258.980316,55.756565 256.565765,52.950500 253.866409,50.535076   C238.786545,37.041374 213.363220,37.499821 198.296539,51.094372   C195.733963,53.406578 192.175583,55.633278 188.900101,55.927547   C181.856308,56.560352 174.655472,56.351509 167.594147,55.687389   C154.290146,54.436157 141.047791,52.543972 127.764084,51.058861   C114.177368,49.539879 106.547081,48.520546 100.922333,31.575588   C96.346024,17.789145 80.737419,13.428513 68.479630,19.080030   C61.339989,22.371807 54.818260,27.003805 47.305660,31.082581   C43.275600,33.364239 39.228340,35.616123 35.218388,37.932594   C15.708948,49.202808 11.862850,71.812462 21.317728,87.928848   C28.351477,99.918289 32.302773,112.315033 32.867935,125.851440   C33.266064,135.387085 44.943714,145.988052 53.535915,145.126663   C59.969913,144.481644 66.521248,144.935410 73.018974,145.013657   C84.339882,145.149963 94.256699,141.077866 104.055290,135.784271   C109.421700,132.885117 115.590050,130.710922 121.615906,129.953735   C133.307022,128.484680 143.575638,138.874207 144.135269,150.642746   C144.503479,158.385956 141.154816,164.094025 136.227600,169.196411   C128.241974,177.465942 119.970253,185.458359 111.886978,193.634659   C102.376930,203.254166 101.958725,222.306717 111.521141,231.896469   C123.227585,243.636383 122.579414,260.459412 113.238266,272.094391   C110.206459,275.870667 106.313553,279.281647 102.159821,281.764374   C93.065956,287.199951 88.744858,294.400696 88.750526,305.313477   C88.755463,314.809692 89.788902,322.564911 99.257812,327.407898   C101.560905,328.585846 103.306320,332.385681 103.789276,335.237244   C104.542458,339.684326 104.737938,344.503143 103.837082,348.890869   C102.324615,356.257568 101.066750,364.179291 97.344475,370.473419   C91.542976,380.283447 88.038536,390.074738 88.961021,401.481049   C89.847794,412.445679 94.530525,421.245819 102.740448,428.501312   C108.439323,433.537628 114.188965,438.660370 119.046928,444.471039   C126.602791,453.508698 128.159943,464.776398 129.014435,476.134399   C129.754532,485.971619 135.279861,492.762115 144.220367,495.767578   C156.720154,499.969574 172.621506,495.852173 180.679428,480.734772   C186.475052,475.140320 191.640015,468.629028 198.186371,464.125977   C216.680099,451.404663 236.934265,445.544128 259.844116,452.331818   C260.675232,453.515533 261.360657,454.842010 262.359436,455.861450   C275.829803,469.610748 291.372681,480.702698 309.295563,487.408722   C321.587708,492.007965 334.755890,494.961639 347.791809,496.656433   C358.166901,498.005280 368.954559,496.637665 379.522522,495.929932   C392.582062,495.055298 404.839783,490.843262 416.753998,485.639557   C430.537750,479.619354 443.126648,471.558044 454.006989,461.276062   C460.383789,455.249969 465.437653,447.823914 471.691589,440.716217  z"/>
<path fill="#009245" opacity="1.000000" stroke="none" d=" M259.428741,451.816895   C236.934265,445.544128 216.680099,451.404663 198.186371,464.125977   C191.640015,468.629028 186.475052,475.140320 179.940536,480.882263   C164.371735,482.243195 152.702896,469.454163 152.737610,454.975494   C152.775009,439.358612 145.702667,426.142059 132.852417,417.053192   C111.977478,402.288605 107.863365,378.076355 119.011261,360.141144   C123.910095,352.259705 127.825783,344.035248 128.529572,334.695190   C129.182663,326.028015 131.713547,316.218567 122.674431,310.450623   C111.379761,303.243378 112.047668,293.045044 113.789009,282.263184   C114.697517,276.638092 117.807861,272.279358 122.493851,268.825073   C127.946220,264.805878 134.070572,261.106689 138.107162,255.881195   C146.601654,244.884705 149.204544,229.616425 136.595978,216.338455   C126.163521,205.352142 126.889809,186.158646 137.849152,176.358948   C146.383667,168.727509 153.848679,159.906540 161.874725,151.698029   C169.672836,143.722641 171.300018,133.981537 166.195587,124.822456   C161.092346,115.665466 150.534561,110.731781 140.232178,113.927689   C133.511093,116.012642 127.314835,119.804161 120.906395,122.878983   C107.687454,129.221542 93.575508,129.311005 79.362373,129.032394   C66.926903,128.788620 57.174728,119.216637 56.985668,106.874153   C56.803024,94.950829 53.443802,84.024307 47.016167,73.902428   C39.806381,62.548885 38.785580,50.603069 44.809738,38.307636   C45.974903,35.929512 46.953724,33.460091 48.018505,31.032787   C54.818260,27.003805 61.339989,22.371807 68.479630,19.080030   C80.737419,13.428513 96.346024,17.789145 100.922333,31.575588   C106.547081,48.520546 114.177368,49.539879 127.764084,51.058861   C141.047791,52.543972 154.290146,54.436157 167.594147,55.687389   C174.655472,56.351509 181.856308,56.560352 188.900101,55.927547   C192.175583,55.633278 195.733963,53.406578 198.296539,51.094372   C213.363220,37.499821 238.786545,37.041374 253.866409,50.535076   C256.565765,52.950500 258.980316,55.756565 261.172058,58.650604   C264.846191,63.502029 269.815338,65.111122 275.549957,64.981491   C287.860779,64.703194 299.932343,65.230698 311.730743,69.756256   C325.492035,75.034721 336.706451,83.512230 345.723022,94.851906   C353.398834,104.505341 370.801514,107.306587 380.673157,99.879967   C384.489105,97.009178 388.042511,93.503319 392.295929,91.551750   C407.279053,84.677132 425.019043,89.363678 430.236053,107.639961   C432.394348,115.201073 437.454529,120.102806 445.216370,120.754349   C452.174835,121.338455 457.594879,117.612846 461.009338,111.496323   C463.832001,106.439812 466.523529,101.294708 468.968079,96.046745   C471.508759,90.592377 475.831055,88.864113 481.460266,88.970810   C486.731232,89.070709 490.800934,90.889885 492.958710,95.979469   C500.768494,114.400360 497.778503,131.484985 486.755066,147.684158   C479.088928,158.949738 467.267670,165.074661 456.164093,171.698654   C430.923462,186.756241 408.141724,204.659836 387.667816,226.630615   C370.216980,224.588989 353.326782,223.761322 336.477386,227.075302   C315.320404,231.236465 295.772949,239.056061 278.652405,253.044693   C262.745605,265.020538 250.234634,279.507233 240.955765,297.207306   C228.365204,320.513428 223.389023,345.186676 225.253006,371.115417   C226.623947,390.185822 231.592468,408.384308 241.306641,425.428284   C247.408295,434.436523 253.418518,443.126709 259.428741,451.816895  z"/>
<path fill="#ffdc7b" opacity="1.000000" stroke="none" d=" M481.082153,296.943695   C489.095123,310.539307 493.689270,325.344757 495.849762,340.850250   C499.944550,370.238037 495.484406,398.276093 480.860352,424.864990   C435.046265,425.063751 389.987030,425.048187 344.927795,425.067169   C328.968567,425.073883 313.009399,425.164795 296.813934,425.115112   C296.415436,424.957062 296.253204,424.901123 295.911072,424.567108   C282.408356,410.216400 272.290924,394.111145 265.111328,375.629944   C265.047028,365.282013 265.047028,355.406403 265.047028,345.312592   C262.155334,345.129059 260.037109,344.994598 257.928955,344.442749   C257.626740,338.919586 256.772705,333.777100 257.114990,328.715576   C257.826813,318.189423 259.172455,307.706116 260.447235,297.130280   C260.636871,297.055359 260.997742,296.865479 261.463989,296.917358   C334.980865,296.960693 408.031494,296.952179 481.082153,296.943695  M328.965515,376.086426   C328.976929,369.921661 328.840546,363.751648 329.058563,357.594208   C329.177856,354.224823 328.224731,352.526947 324.606934,352.972870   C323.463959,353.113708 322.281006,352.929749 321.438629,352.322968   C326.488464,344.737213 331.538330,337.151459 336.566711,329.597992   C322.124390,318.401062 287.818085,318.437195 273.528259,329.568298   C278.583618,337.321503 283.653992,345.097687 287.861816,352.933838   C285.744385,352.933838 283.626953,352.933838 281.541565,352.933838   C280.547516,374.866058 279.417480,388.242554 289.125702,393.492798   C289.125702,388.020874 289.125702,382.760742 289.125702,377.355652   C291.907288,377.355652 294.276215,377.355652 297.075653,377.355652   C297.075653,384.963898 297.075653,392.226685 297.075653,399.324066   C312.964203,404.931061 328.521942,393.794098 328.965515,376.086426  M345.341461,407.989899   C348.893036,408.326721 352.455200,408.578857 355.993317,409.023010   C359.907318,409.514313 361.135925,407.993073 361.085052,404.027130   C360.880463,388.073364 361.000732,372.115448 361.000854,356.159058   C361.000946,344.589203 361.003052,344.704285 349.217499,344.927124   C345.954437,344.988861 344.922455,346.034485 344.946320,349.261200   C345.089050,368.540009 345.063568,387.820099 345.341461,407.989899  z"/>
<path fill="#006837" opacity="1.000000" stroke="none" d=" M47.662083,31.057682   C46.953724,33.460091 45.974903,35.929512 44.809738,38.307636   C38.785580,50.603069 39.806381,62.548885 47.016167,73.902428   C53.443802,84.024307 56.803024,94.950829 56.985668,106.874153   C57.174728,119.216637 66.926903,128.788620 79.362373,129.032394   C93.575508,129.311005 107.687454,129.221542 120.906395,122.878983   C127.314835,119.804161 133.511093,116.012642 140.232178,113.927689   C150.534561,110.731781 161.092346,115.665466 166.195587,124.822456   C171.300018,133.981537 169.672836,143.722641 161.874725,151.698029   C153.848679,159.906540 146.383667,168.727509 137.849152,176.358948   C126.889809,186.158646 126.163521,205.352142 136.595978,216.338455   C149.204544,229.616425 146.601654,244.884705 138.107162,255.881195   C134.070572,261.106689 127.946220,264.805878 122.493851,268.825073   C117.807861,272.279358 114.697517,276.638092 113.789009,282.263184   C112.047668,293.045044 111.379761,303.243378 122.674431,310.450623   C131.713547,316.218567 129.182663,326.028015 128.529572,334.695190   C127.825783,344.035248 123.910095,352.259705 119.011261,360.141144   C107.863365,378.076355 111.977478,402.288605 132.852417,417.053192   C145.702667,426.142059 152.775009,439.358612 152.737610,454.975494   C152.702896,469.454163 164.371735,482.243195 179.650635,481.050446   C172.621506,495.852173 156.720154,499.969574 144.220367,495.767578   C135.279861,492.762115 129.754532,485.971619 129.014435,476.134399   C128.159943,464.776398 126.602791,453.508698 119.046928,444.471039   C114.188965,438.660370 108.439323,433.537628 102.740448,428.501312   C94.530525,421.245819 89.847794,412.445679 88.961021,401.481049   C88.038536,390.074738 91.542976,380.283447 97.344475,370.473419   C101.066750,364.179291 102.324615,356.257568 103.837082,348.890869   C104.737938,344.503143 104.542458,339.684326 103.789276,335.237244   C103.306320,332.385681 101.560905,328.585846 99.257812,327.407898   C89.788902,322.564911 88.755463,314.809692 88.750526,305.313477   C88.744858,294.400696 93.065956,287.199951 102.159821,281.764374   C106.313553,279.281647 110.206459,275.870667 113.238266,272.094391   C122.579414,260.459412 123.227585,243.636383 111.521141,231.896469   C101.958725,222.306717 102.376930,203.254166 111.886978,193.634659   C119.970253,185.458359 128.241974,177.465942 136.227600,169.196411   C141.154816,164.094025 144.503479,158.385956 144.135269,150.642746   C143.575638,138.874207 133.307022,128.484680 121.615906,129.953735   C115.590050,130.710922 109.421700,132.885117 104.055290,135.784271   C94.256699,141.077866 84.339882,145.149963 73.018974,145.013657   C66.521248,144.935410 59.969913,144.481644 53.535915,145.126663   C44.943714,145.988052 33.266064,135.387085 32.867935,125.851440   C32.302773,112.315033 28.351477,99.918289 21.317728,87.928848   C11.862850,71.812462 15.708948,49.202808 35.218388,37.932594   C39.228340,35.616123 43.275600,33.364239 47.662083,31.057682  z"/>
<path fill="#DD1F2D" opacity="1.000000" stroke="none" d=" M481.035156,296.580872   C408.031494,296.952179 334.980865,296.960693 261.481171,296.537354   C264.586670,283.522675 268.905487,271.267059 275.863861,260.069550   C277.216461,257.892944 277.957703,255.336349 278.980957,252.955048   C295.772949,239.056061 315.320404,231.236465 336.477386,227.075302   C353.326782,223.761322 370.216980,224.588989 387.516693,226.922913   C397.794800,230.162186 408.097015,232.550888 417.385040,237.038635   C428.001068,242.168030 438.111908,248.610031 447.720764,255.489426   C459.846100,264.170441 468.758820,276.063751 476.889099,288.456573   C478.486816,290.891968 479.633484,293.623260 481.035156,296.580872  z"/>
<path fill="#C1272D" opacity="1.000000" stroke="none" d=" M296.090973,424.845154   C296.253204,424.901123 296.415436,424.957062 296.989929,425.383209   C300.972229,428.980042 304.327301,432.489899 308.146515,435.388092   C337.263397,457.483704 369.739044,467.916656 406.541168,464.141571   C423.155731,462.437256 438.791260,457.903809 453.679504,450.602661   C459.618774,447.690094 465.292175,444.235443 471.086609,441.027557   C465.437653,447.823914 460.383789,455.249969 454.006989,461.276062   C443.126648,471.558044 430.537750,479.619354 416.753998,485.639557   C404.839783,490.843262 392.582062,495.055298 379.522522,495.929932   C368.954559,496.637665 358.166901,498.005280 347.791809,496.656433   C334.755890,494.961639 321.587708,492.007965 309.295563,487.408722   C291.372681,480.702698 275.829803,469.610748 262.359436,455.861450   C261.360657,454.842010 260.675232,453.515533 259.636414,452.074341   C253.418518,443.126709 247.408295,434.436523 241.758408,425.401123   C260.109497,424.985626 278.100220,424.915375 296.090973,424.845154  z"/>
<path fill="#dd202d" opacity="1.000000" stroke="none" d=" M471.389099,440.871887   C465.292175,444.235443 459.618774,447.690094 453.679504,450.602661   C438.791260,457.903809 423.155731,462.437256 406.541168,464.141571   C369.739044,467.916656 337.263397,457.483704 308.146515,435.388092   C304.327301,432.489899 300.972229,428.980042 297.226196,425.485352   C313.009399,425.164795 328.968567,425.073883 344.927795,425.067169   C389.987030,425.048187 435.046265,425.063751 480.576416,425.073669   C477.928741,430.293152 474.810150,435.504669 471.389099,440.871887  z"/>
<path fill="#F5C62E" opacity="1.000000" stroke="none" d=" M295.911072,424.567108   C278.100220,424.915375 260.109497,424.985626 241.666992,425.083038   C231.592468,408.384308 226.623947,390.185822 225.253006,371.115417   C223.389023,345.186676 228.365204,320.513428 241.409088,297.229248   C248.150818,297.053192 254.204208,297.129211 260.257599,297.205200   C259.172455,307.706116 257.826813,318.189423 257.114990,328.715576   C256.772705,333.777100 257.626740,338.919586 257.481628,344.495483   C254.448318,344.965607 251.872421,344.965607 249.414703,344.965607   C249.414703,366.774017 249.414703,387.748077 249.414703,408.674194   C254.738159,408.674194 259.641022,408.674194 265.175598,408.674194   C265.175598,397.603729 265.175598,386.852997 265.175598,376.102264   C272.290924,394.111145 282.408356,410.216400 295.911072,424.567108  z"/>
<path fill="#BE292D" opacity="1.000000" stroke="none" d=" M260.447235,297.130280   C254.204208,297.129211 248.150818,297.053192 241.644104,296.955261   C250.234634,279.507233 262.745605,265.020538 278.652405,253.044678   C277.957703,255.336349 277.216461,257.892944 275.863861,260.069550   C268.905487,271.267059 264.586670,283.522675 261.014954,296.485474   C260.997742,296.865479 260.636871,297.055359 260.447235,297.130280  z"/>
<path fill="#DD212E" opacity="1.000000" stroke="none" d=" M288.724335,352.873871   C283.653992,345.097687 278.583618,337.321503 273.528259,329.568298   C287.818085,318.437195 322.124390,318.401062 336.566711,329.597992   C331.538330,337.151459 326.488464,344.737213 320.798645,352.654785   C315.141022,353.010590 310.123352,353.034576 304.631836,353.043396   C299.013397,352.976837 293.868866,352.925354 288.724335,352.873871  z"/>
<path fill="#C1282D" opacity="1.000000" stroke="none" d=" M288.293091,352.903870   C293.868866,352.925354 299.013397,352.976837 304.588135,353.505798   C305.018341,361.545380 305.018341,369.107391 305.018341,377.021301   C313.363342,377.021301 321.124664,377.021301 328.886017,377.021301   C328.521942,393.794098 312.964203,404.931061 297.075653,399.324066   C297.075653,392.226685 297.075653,384.963898 297.075653,377.355652   C294.276215,377.355652 291.907288,377.355652 289.125702,377.355652   C289.125702,382.760742 289.125702,388.020874 289.125702,393.492798   C279.417480,388.242554 280.547516,374.866058 281.541565,352.933838   C283.626953,352.933838 285.744385,352.933838 288.293091,352.903870  z"/>
<path fill="#e3e1e1" opacity="1.000000" stroke="none" d=" M265.111328,375.629944   C265.175598,386.852997 265.175598,397.603729 265.175598,408.674194   C259.641022,408.674194 254.738159,408.674194 249.414703,408.674194   C249.414703,387.748077 249.414703,366.774017 249.414703,344.965607   C251.872421,344.965607 254.448318,344.965607 257.471558,344.912872   C260.037109,344.994598 262.155334,345.129059 265.047028,345.312592   C265.047028,355.406403 265.047028,365.282013 265.111328,375.629944  z"/>
<path fill="#e3e1e1" opacity="1.000000" stroke="none" d=" M345.218018,407.544800   C345.063568,387.820099 345.089050,368.540009 344.946320,349.261200   C344.922455,346.034485 345.954437,344.988861 349.217499,344.927124   C361.003052,344.704285 361.000946,344.589203 361.000854,356.159058   C361.000732,372.115448 360.880463,388.073364 361.085052,404.027130   C361.135925,407.993073 359.907318,409.514313 355.993317,409.023010   C352.455200,408.578857 348.893036,408.326721 345.218018,407.544800  z"/>
<path fill="#e3e1e1" opacity="1.000000" stroke="none" d=" M328.925781,376.553864   C321.124664,377.021301 313.363342,377.021301 305.018341,377.021301   C305.018341,369.107391 305.018341,361.545380 305.062012,353.520935   C310.123352,353.034576 315.141022,353.010590 320.637512,352.940521   C322.281006,352.929749 323.463959,353.113708 324.606934,352.972870   C328.224731,352.526947 329.177856,354.224823 329.058563,357.594208   C328.840546,363.751648 328.976929,369.921661 328.925781,376.553864  z"/>
</svg>