<svg xmlns="http://www.w3.org/2000/svg" xmlns:xlink="http://www.w3.org/1999/xlink" version="1.1" id="Layer_1" x="0px" y="0px" width="100%" viewBox="0 0 512 512" enable-background="new 0 0 512 512" xml:space="preserve">
<path fill="#FDB441" opacity="1.000000" stroke="none" d=" M280.000000,513.000000   C255.312439,513.000000 230.624878,513.000000 205.749329,512.619019   C204.546371,511.826355 203.562653,511.180023 202.511505,511.040039   C194.257309,509.940826 185.862289,509.533997 177.751816,507.791351   C156.080719,503.134979 134.826050,497.164062 113.966995,489.349518   C98.444702,483.534271 87.467499,465.761963 90.764397,449.501282   C94.203987,432.536926 108.645462,420.651886 124.909279,421.292633   C132.615982,421.596252 140.230774,424.907349 147.833038,427.048248   C163.986450,431.597229 180.104401,436.272064 196.445374,440.955048   C197.996140,424.001251 204.058395,415.697296 212.952011,410.937592   C219.494766,407.436035 227.140778,405.573181 234.520065,404.130829   C266.219940,397.935089 295.401123,385.504364 323.114807,369.287689   C324.316193,368.584686 325.042175,367.069275 325.990845,365.965332   C325.992096,365.998383 325.927673,365.983459 326.166626,366.302979   C327.267212,366.134155 328.128845,365.645782 329.307800,364.994324   C332.641754,363.139435 335.827545,361.689514 338.647552,359.716705   C357.071442,346.827423 373.739075,331.944550 388.367706,314.862000   C392.649628,309.861786 396.330322,304.346771 400.552856,298.863586   C407.134552,288.685730 413.734100,278.878632 419.703156,268.701752   C430.391876,250.478165 438.161499,230.979416 444.033295,210.695633   C446.530762,202.068298 450.618805,194.447800 458.977051,190.272430   C463.024567,197.089203 467.023743,203.557449 470.854065,210.321381   C468.380219,215.841110 465.633514,220.918243 463.839661,226.312271   C448.508575,272.412140 423.899139,312.765747 389.376617,346.979309   C383.485321,352.817841 376.991760,358.044250 370.892548,363.679108   C367.174927,367.113678 366.774567,372.015167 369.670197,375.153168   C373.022675,378.786255 377.241089,378.682404 381.537659,374.956940   C384.294800,372.566254 387.141571,370.278961 390.173096,368.074036   C390.607361,368.473297 390.816589,368.743835 390.867188,369.306854   C366.404816,395.756012 338.408905,417.274353 307.589233,435.343292   C308.629944,435.773254 309.463379,435.942841 310.201233,435.748810   C339.159363,428.134277 366.723816,417.047119 391.434357,400.065369   C407.240875,389.202698 421.920685,376.700653 437.418274,364.959595   C438.176270,364.657440 438.621613,364.329224 439.038330,363.989197   C439.009705,363.977356 439.004730,364.038544 439.418030,364.020844   C451.812317,359.867371 463.304901,361.618591 473.197327,368.951660   C490.847534,382.035522 491.996887,408.206390 476.209412,422.072632   C463.830627,432.944977 450.915283,443.303040 437.552032,452.937805   C409.718933,473.005249 378.891235,487.419617 346.289886,497.755310   C325.565002,504.325836 304.308350,509.086761 282.542542,511.076691   C281.643921,511.158875 280.845245,512.334045 280.000000,513.000000  M277.770020,475.451660   C279.640869,476.638245 281.474701,478.746613 283.390076,478.823456   C287.654633,478.994659 292.014587,478.447479 296.240173,477.672516   C331.861664,471.139099 365.641907,459.438904 397.148804,441.419220   C417.438660,429.814911 436.155304,416.043304 453.621246,400.545227   C457.351868,397.234924 457.839386,392.944153 455.018219,389.473206   C451.727539,385.424530 448.223267,385.090607 443.818695,388.635071   C439.678467,391.966827 435.696320,395.494141 431.606903,398.890015   C408.248596,418.286804 382.359467,433.487427 354.320465,445.000580   C331.935638,454.192017 308.625610,460.108856 284.742554,463.897247   C277.994843,464.967560 276.391296,467.617706 277.770020,475.451660  M233.367371,467.899719   C230.487045,467.278259 227.634521,466.423248 224.721497,466.076508   C213.212692,464.706696 201.621078,463.908508 190.178253,462.135895   C169.933350,458.999786 150.358994,453.241302 131.299637,445.715942   C125.894707,443.581848 121.473953,445.257935 119.627167,449.836731   C117.895844,454.129181 120.039909,458.075256 125.602745,459.993042   C136.747070,463.835022 147.870407,467.784882 159.172623,471.112000   C181.553635,477.700409 204.574539,480.568604 227.800461,481.990265   C231.644333,482.225555 234.694214,480.939758 236.330765,477.251923   C237.903488,473.707916 236.910599,470.780121 233.367371,467.899719  M305.159180,436.720856   C305.063599,436.721619 304.968018,436.722382 305.159180,436.720856  z"/>
<path fill="#C5D3DD" opacity="1.000000" stroke="none" d=" M400.286621,299.067719   C396.330322,304.346771 392.649628,309.861786 388.367706,314.862000   C373.739075,331.944550 357.071442,346.827423 338.647552,359.716705   C335.827545,361.689514 332.641754,363.139435 328.953735,364.923431   C327.497437,365.338257 326.712555,365.660858 325.927673,365.983459   C325.927673,365.983459 325.992096,365.998383 325.579651,365.991760   C314.171997,368.333374 303.262909,371.265228 292.162933,372.904297   C271.226044,375.995880 250.235306,379.817169 229.163651,380.618439   C204.076752,381.572357 178.837799,380.352875 153.748154,378.760468   C137.259247,377.713898 120.842560,374.772583 104.527534,371.914764   C77.853645,367.242432 52.171505,359.438904 28.764330,345.319092   C18.177872,338.933044 8.650021,331.497498 3.303955,319.843689   C2.937527,319.044922 1.786262,318.606171 1.000001,318.000000   C1.000000,311.312347 1.000000,304.624725 1.305242,297.772888   C2.773084,295.544037 3.894280,293.454773 5.105084,291.418793   C12.381346,279.183746 23.699484,271.461639 35.881050,265.159607   C45.629890,260.116089 56.028881,256.329346 66.475052,252.049088   C67.451286,252.604492 68.292503,252.966599 68.703079,253.605484   C80.395294,271.799042 94.755905,287.521057 112.515755,299.902344   C134.581467,315.285461 158.819397,324.865601 186.303360,326.323486   C200.996002,326.086121 215.495804,326.573914 229.731613,324.863892   C262.660126,320.908478 290.780609,306.195496 314.230133,283.010529   C322.906738,274.431824 330.118958,264.372040 338.406921,254.989609   C339.902496,254.985870 340.990143,254.980225 342.466125,254.986206   C359.953339,260.862549 376.045868,268.725159 389.341675,281.124359   C394.431732,285.871185 399.004791,291.650970 400.286621,299.067719  z"/>
<path fill="#ffffff" opacity="1.000000" stroke="none" d=" M1.000001,318.468658   C1.786262,318.606171 2.937527,319.044922 3.303955,319.843689   C8.650021,331.497498 18.177872,338.933044 28.764330,345.319092   C52.171505,359.438904 77.853645,367.242432 104.527534,371.914764   C120.842560,374.772583 137.259247,377.713898 153.748154,378.760468   C178.837799,380.352875 204.076752,381.572357 229.163651,380.618439   C250.235306,379.817169 271.226044,375.995880 292.162933,372.904297   C303.262909,371.265228 314.171997,368.333374 325.578430,365.958710   C325.042175,367.069275 324.316193,368.584686 323.114807,369.287689   C295.401123,385.504364 266.219940,397.935089 234.520065,404.130829   C227.140778,405.573181 219.494766,407.436035 212.952011,410.937592   C204.058395,415.697296 197.996140,424.001251 196.445374,440.955048   C180.104401,436.272064 163.986450,431.597229 147.833038,427.048248   C140.230774,424.907349 132.615982,421.596252 124.909279,421.292633   C108.645462,420.651886 94.203987,432.536926 90.764397,449.501282   C87.467499,465.761963 98.444702,483.534271 113.966995,489.349518   C134.826050,497.164062 156.080719,503.134979 177.751816,507.791351   C185.862289,509.533997 194.257309,509.940826 202.511505,511.040039   C203.562653,511.180023 204.546371,511.826355 205.280670,512.619019   C137.074615,513.000000 69.149246,513.000000 1.000000,513.000000   C1.000000,448.312622 1.000000,383.624969 1.000001,318.468658  z"/>
<path fill="#ffffff" opacity="1.000000" stroke="none" d=" M400.552856,298.863586   C399.004791,291.650970 394.431732,285.871185 389.341675,281.124359   C376.045868,268.725159 359.953339,260.862549 342.547363,254.624817   C349.044647,251.090134 355.992615,248.201981 362.627716,244.717972   C387.065735,231.885803 408.030609,214.755875 424.702637,192.707306   C443.064178,168.424393 455.685944,141.960999 454.014069,110.457336   C453.517456,101.098976 451.208862,92.301651 445.938171,84.495895   C435.864288,69.576729 421.048859,63.092346 403.712463,62.138275   C394.859192,61.651054 385.926758,62.601295 377.012299,62.536400   C372.578217,56.177856 369.016541,49.218910 363.565247,44.395523   C352.694214,34.776604 340.215790,27.103720 326.447296,22.284416   C312.259247,17.318260 297.883728,12.642234 283.267120,9.218964   C270.206848,6.160197 256.702789,5.003170 243.411209,2.901670   C242.854492,2.813652 242.466568,1.658178 242.000000,1.000000   C332.250427,1.000000 422.500854,1.000000 513.000000,1.000000   C513.000000,69.354027 513.000000,137.708359 512.692627,206.831955   C512.123352,207.396805 511.722504,207.246231 511.619476,206.980255   C504.865601,189.549515 491.327057,182.013046 472.413757,184.211288   C467.760284,184.752151 463.415436,187.948395 458.928711,189.923920   C450.618805,194.447800 446.530762,202.068298 444.033295,210.695633   C438.161499,230.979416 430.391876,250.478165 419.703156,268.701752   C413.734100,278.878632 407.134552,288.685730 400.552856,298.863586  z"/>
<path fill="#ffffff" opacity="1.000000" stroke="none" d=" M280.468628,513.000000   C280.845245,512.334045 281.643921,511.158875 282.542542,511.076691   C304.308350,509.086761 325.565002,504.325836 346.289886,497.755310   C378.891235,487.419617 409.718933,473.005249 437.552032,452.937805   C450.915283,443.303040 463.830627,432.944977 476.209412,422.072632   C491.996887,408.206390 490.847534,382.035522 473.197327,368.951660   C463.304901,361.618591 451.812317,359.867371 439.109375,363.756104   C442.373932,358.726166 446.755707,354.215576 450.273254,349.109619   C461.037628,333.484344 472.262115,318.094208 481.833954,301.749573   C494.223724,280.592987 503.387634,257.851135 510.404846,234.298462   C510.776276,233.051910 512.112793,232.092880 513.000000,231.000000   C513.000000,324.920105 513.000000,418.840210 513.000000,513.000000   C435.645935,513.000000 358.291626,513.000000 280.468628,513.000000  z"/>
<path fill="#C5D3DD" opacity="1.000000" stroke="none" d=" M241.531342,1.000000   C242.466568,1.658178 242.854492,2.813652 243.411209,2.901670   C256.702789,5.003170 270.206848,6.160197 283.267120,9.218964   C297.883728,12.642234 312.259247,17.318260 326.447296,22.284416   C340.215790,27.103720 352.694214,34.776604 363.565247,44.395523   C369.016541,49.218910 372.578217,56.177856 377.049805,62.923264   C380.082581,70.847313 380.365845,78.359360 379.622253,86.150253   C378.849945,87.184349 378.277527,87.992027 377.916321,88.885109   C374.451538,97.451111 369.613800,105.079956 362.032654,110.536484   C354.154480,116.206825 346.021698,121.523430 337.627197,127.044815   C335.071564,127.688492 332.888947,128.282089 330.910950,128.588593   C332.264709,127.629669 333.400360,126.933327 334.565094,126.289665   C353.060150,116.068970 356.718353,94.911354 342.099762,79.692116   C336.506439,73.868996 330.107269,68.484047 323.226135,64.293953   C298.062469,48.971127 269.807922,43.470406 241.064987,40.050892   C217.849457,37.288971 194.561234,37.189293 171.246368,38.895588   C150.098450,40.443302 129.241776,43.616421 109.033997,50.169605   C90.112938,56.305523 72.610985,64.960007 59.222363,80.306564   C45.792458,95.700432 49.316483,115.990067 67.155289,126.007812   C70.488373,127.879570 73.886253,129.635956 76.886101,131.591476   C70.524086,129.090286 64.284866,126.884560 58.581654,123.714516   C40.465473,113.644905 24.821442,101.319031 21.099363,78.614868   C22.425341,72.263268 22.882010,65.888092 25.446106,60.519424   C30.528328,49.878345 39.415844,42.359386 49.162098,35.950497   C68.957985,22.933214 90.969612,15.206444 113.860817,10.163941   C128.414841,6.957964 143.320404,5.353724 158.050720,2.924606   C158.786285,2.803308 159.354080,1.664845 160.000000,1.000000   C187.020889,1.000000 214.041794,1.000000 241.531342,1.000000  z"/>
<path fill="#ffffff" opacity="1.000000" stroke="none" d=" M159.531342,1.000000   C159.354080,1.664845 158.786285,2.803308 158.050720,2.924606   C143.320404,5.353724 128.414841,6.957964 113.860817,10.163941   C90.969612,15.206444 68.957985,22.933214 49.162098,35.950497   C39.415844,42.359386 30.528328,49.878345 25.446106,60.519424   C22.882010,65.888092 22.425341,72.263268 21.028820,79.075691   C21.360443,90.361855 21.096405,100.814514 22.139156,111.135155   C23.571451,125.311310 25.654205,139.445724 28.066267,153.493622   C32.349556,178.439621 40.854130,202.097839 51.548592,224.941452   C55.884453,234.202957 61.245018,242.984726 66.139313,251.984802   C56.028881,256.329346 45.629890,260.116089 35.881050,265.159607   C23.699484,271.461639 12.381346,279.183746 5.105084,291.418793   C3.894280,293.454773 2.773084,295.544037 1.305242,297.304321   C1.000000,198.428253 1.000000,99.856514 1.000000,1.000000   C53.687218,1.000000 106.374954,1.000000 159.531342,1.000000  z"/>
<path fill="#FEA714" opacity="1.000000" stroke="none" d=" M513.000000,230.531372   C512.112793,232.092880 510.776276,233.051910 510.404846,234.298462   C503.387634,257.851135 494.223724,280.592987 481.833954,301.749573   C472.262115,318.094208 461.037628,333.484344 450.273254,349.109619   C446.755707,354.215576 442.373932,358.726166 438.696045,363.773804   C439.004730,364.038544 439.009705,363.977356 438.800171,363.686707   C438.095642,363.908508 437.600586,364.420990 437.105591,364.933502   C421.920685,376.700653 407.240875,389.202698 391.434357,400.065369   C366.723816,417.047119 339.159363,428.134277 310.201233,435.748810   C309.463379,435.942841 308.629944,435.773254 307.589233,435.343292   C338.408905,417.274353 366.404816,395.756012 391.160278,369.152039   C393.397736,366.459412 395.183502,364.214142 396.978638,361.975769   C396.988037,361.982727 396.978546,361.980042 397.201782,361.875000   C397.702271,361.568695 397.888672,361.303528 397.992126,360.987244   C398.000000,361.000000 397.974457,360.984375 398.197815,360.877014   C398.699615,360.567871 398.888092,360.302246 398.993927,359.987000   C399.001221,360.001221 398.972778,359.986633 399.196411,359.877869   C399.698883,359.566315 399.888824,359.300110 399.996185,358.986206   C400.002472,359.001892 399.970825,358.990021 400.193848,358.878418   C400.694794,358.562683 400.887207,358.296692 400.999023,357.986206   C401.003876,358.003601 400.969055,357.994293 401.190948,357.879822   C401.689453,357.560333 401.884064,357.295135 401.999023,356.988678   C402.001343,357.007629 401.965088,356.995789 402.123810,356.909485   C402.346313,356.722870 402.487640,356.573303 402.460602,356.530762   C402.339355,356.339996 402.170227,356.179688 402.165253,355.710754   C410.349945,346.584412 418.975922,338.216492 426.318268,328.843079   C451.130768,297.166809 469.428650,262.057861 480.924286,223.376587   C483.327271,215.290833 480.626801,208.564545 471.022949,210.025696   C467.023743,203.557449 463.024567,197.089203 458.977051,190.272446   C463.415436,187.948395 467.760284,184.752151 472.413757,184.211288   C491.327057,182.013046 504.865601,189.549515 511.619476,206.980255   C511.722504,207.246231 512.123352,207.396805 512.692627,207.300613   C513.000000,214.687576 513.000000,222.375168 513.000000,230.531372  z"/>
<path fill="#FB8902" opacity="1.000000" stroke="none" d=" M277.592102,475.089050   C276.391296,467.617706 277.994843,464.967560 284.742554,463.897247   C308.625610,460.108856 331.935638,454.192017 354.320465,445.000580   C382.359467,433.487427 408.248596,418.286804 431.606903,398.890015   C435.696320,395.494141 439.678467,391.966827 443.818695,388.635071   C448.223267,385.090607 451.727539,385.424530 455.018219,389.473206   C457.839386,392.944153 457.351868,397.234924 453.621246,400.545227   C436.155304,416.043304 417.438660,429.814911 397.148804,441.419220   C365.641907,459.438904 331.861664,471.139099 296.240173,477.672516   C292.014587,478.447479 287.654633,478.994659 283.390076,478.823456   C281.474701,478.746613 279.640869,476.638245 277.592102,475.089050  z"/>
<path fill="#FB8902" opacity="1.000000" stroke="none" d=" M470.854065,210.321381   C480.626801,208.564545 483.327271,215.290833 480.924286,223.376587   C469.428650,262.057861 451.130768,297.166809 426.318268,328.843079   C418.975922,338.216492 410.349945,346.584412 402.145081,355.957153   C401.977997,356.501221 401.965088,356.995789 401.965088,356.995789   C401.965088,356.995789 402.001343,357.007629 401.773987,357.099487   C401.354095,357.459015 401.161560,357.726654 400.969055,357.994263   C400.969055,357.994293 401.003876,358.003601 400.771851,358.093018   C400.350128,358.451599 400.160492,358.720825 399.970825,358.990021   C399.970825,358.990021 400.002472,359.001892 399.767212,359.088501   C399.345551,359.445648 399.159149,359.716125 398.972778,359.986633   C398.972778,359.986633 399.001221,360.001221 398.764709,360.087219   C398.240448,360.373138 398.055847,360.643524 397.974457,360.984375   C397.974457,360.984375 398.000000,361.000000 397.762878,361.084961   C397.236969,361.368103 397.054565,361.638153 396.978546,361.980042   C396.978546,361.980042 396.988037,361.982727 396.639160,362.010406   C394.176239,364.007141 392.062164,365.976227 389.948120,367.945312   C387.141571,370.278961 384.294800,372.566254 381.537659,374.956940   C377.241089,378.682404 373.022675,378.786255 369.670197,375.153168   C366.774567,372.015167 367.174927,367.113678 370.892548,363.679108   C376.991760,358.044250 383.485321,352.817841 389.376617,346.979309   C423.899139,312.765747 448.508575,272.412140 463.839661,226.312271   C465.633514,220.918243 468.380219,215.841110 470.854065,210.321381  z"/>
<path fill="#FB8902" opacity="1.000000" stroke="none" d=" M233.667175,468.153870   C236.910599,470.780121 237.903488,473.707916 236.330765,477.251923   C234.694214,480.939758 231.644333,482.225555 227.800461,481.990265   C204.574539,480.568604 181.553635,477.700409 159.172623,471.112000   C147.870407,467.784882 136.747070,463.835022 125.602745,459.993042   C120.039909,458.075256 117.895844,454.129181 119.627167,449.836731   C121.473953,445.257935 125.894707,443.581848 131.299637,445.715942   C150.358994,453.241302 169.933350,458.999786 190.178253,462.135895   C201.621078,463.908508 213.212692,464.706696 224.721497,466.076508   C227.634521,466.423248 230.487045,467.278259 233.667175,468.153870  z"/>
<path fill="#FDAA2F" opacity="1.000000" stroke="none" d=" M390.173096,368.074036   C392.062164,365.976227 394.176239,364.007141 396.629761,362.003479   C395.183502,364.214142 393.397736,366.459412 391.318909,368.859558   C390.816589,368.743835 390.607361,368.473297 390.173096,368.074036  z"/>
<path fill="#ffffff" opacity="1.000000" stroke="none" d=" M326.166626,366.302979   C326.712555,365.660858 327.497437,365.338257 328.636414,365.086548   C328.128845,365.645782 327.267212,366.134155 326.166626,366.302979  z"/>
<path fill="#ffffff" opacity="1.000000" stroke="none" d=" M437.418213,364.959564   C437.600586,364.420990 438.095642,363.908508 438.828827,363.698517   C438.621613,364.329224 438.176270,364.657440 437.418213,364.959564  z"/>
<path fill="#FEA714" opacity="1.000000" stroke="none" d=" M305.015808,436.721985   C304.968018,436.722382 305.063599,436.721619 305.015808,436.721985  z"/>
<path fill="#e8edf2" opacity="1.000000" stroke="none" d=" M66.475052,252.049072   C61.245018,242.984726 55.884453,234.202957 51.548592,224.941452   C40.854130,202.097839 32.349556,178.439621 28.066267,153.493622   C25.654205,139.445724 23.571451,125.311310 22.139156,111.135155   C21.096405,100.814514 21.360443,90.361855 21.112419,79.507233   C24.821442,101.319031 40.465473,113.644905 58.581654,123.714516   C64.284866,126.884560 70.524086,129.090286 76.890289,131.647385   C77.262611,131.557404 77.216484,131.656738 77.320877,131.996048   C78.311333,132.532288 79.197403,132.729218 80.049042,132.950317   C80.014626,132.974487 80.033447,132.892502 80.194824,133.167511   C80.955887,133.566071 81.555573,133.689621 82.101212,133.856522   C82.047180,133.899887 82.103828,133.773422 82.257889,134.086029   C83.295128,134.584503 84.178291,134.770386 85.034561,134.975830   C85.007668,134.995407 85.016113,134.929413 85.171387,135.189011   C85.884270,135.644440 86.441887,135.840271 87.266739,136.303604   C90.401764,137.331100 93.283813,138.041504 96.134514,138.860901   C103.157944,140.879669 110.102478,143.211029 117.192612,144.953278   C154.520004,154.125610 192.411835,155.652283 230.609268,153.206223   C261.328949,151.239029 291.159241,145.332260 320.129852,133.916916   C320.969604,133.624619 321.488525,133.304764 322.004333,132.995880   C322.001190,133.006836 321.979858,132.998505 322.327393,133.013031   C323.413818,132.608093 324.152740,132.188644 324.911255,131.834839   C324.930878,131.900497 324.833405,131.804169 325.196533,131.867615   C326.682007,131.235077 327.804352,130.539108 328.940735,129.883331   C328.954742,129.923553 328.870422,129.911545 329.115906,129.864624   C329.676819,129.671036 329.911469,129.441727 330.213562,129.035797   C330.361725,128.941803 330.706360,128.875687 330.706360,128.875687   C332.888947,128.282089 335.071564,127.688492 337.627075,127.498688   C336.999725,136.106735 336.300903,144.361221 334.943604,152.505981   C330.609253,178.514679 322.980988,203.563049 311.743378,227.422516   C299.394073,253.642288 282.445740,276.484619 259.715515,294.623047   C245.734665,305.779602 230.075119,314.173309 212.798416,319.161163   C203.938034,321.719238 194.931229,323.770172 185.990601,326.050293   C158.819397,324.865601 134.581467,315.285461 112.515755,299.902344   C94.755905,287.521057 80.395294,271.799042 68.703079,253.605484   C68.292503,252.966599 67.451286,252.604492 66.475052,252.049072  z"/>
<path fill="#D9E7EC" opacity="1.000000" stroke="none" d=" M186.303360,326.323486   C194.931229,323.770172 203.938034,321.719238 212.798416,319.161163   C230.075119,314.173309 245.734665,305.779602 259.715515,294.623047   C282.445740,276.484619 299.394073,253.642288 311.743378,227.422516   C322.980988,203.563049 330.609253,178.514679 334.943604,152.505981   C336.300903,144.361221 336.999725,136.106735 338.000122,127.448608   C346.021698,121.523430 354.154480,116.206825 362.032654,110.536484   C369.613800,105.079956 374.451538,97.451111 377.916321,88.885109   C378.277527,87.992027 378.849945,87.184349 379.915985,86.437378   C380.684967,89.061752 380.862335,91.585777 381.021851,94.571259   C381.457214,113.424530 380.781281,131.755676 376.953888,149.806168   C374.027222,163.608627 370.761047,177.343109 367.402069,191.048080   C365.926178,197.069901 363.843994,202.943161 361.839783,209.173737   C360.920166,210.349930 359.997253,211.137772 359.506226,212.137665   C354.266907,222.806900 349.141479,233.532150 343.881409,244.191025   C342.069183,247.863235 339.968140,251.392929 337.999023,254.987701   C330.118958,264.372040 322.906738,274.431824 314.230133,283.010529   C290.780609,306.195496 262.660126,320.908478 229.731613,324.863892   C215.495804,326.573914 200.996002,326.086121 186.303360,326.323486  z"/>
<path fill="#e8edf2" opacity="1.000000" stroke="none" d=" M381.039734,94.109802   C380.862335,91.585777 380.684967,89.061752 380.213867,86.250595   C380.365845,78.359360 380.082581,70.847313 377.067627,63.288681   C385.926758,62.601295 394.859192,61.651054 403.712463,62.138275   C421.048859,63.092346 435.864288,69.576729 445.938171,84.495895   C451.208862,92.301651 453.517456,101.098976 454.014069,110.457336   C455.685944,141.960999 443.064178,168.424393 424.702637,192.707306   C408.030609,214.755875 387.065735,231.885803 362.627716,244.717972   C355.992615,248.201981 349.044647,251.090134 342.158997,254.613159   C340.990143,254.980225 339.902496,254.985870 338.406952,254.989624   C339.968140,251.392929 342.069183,247.863235 343.881409,244.191025   C349.141479,233.532150 354.266907,222.806900 359.506226,212.137665   C359.997253,211.137772 360.920166,210.349930 362.185486,209.130951   C371.547363,201.288437 380.739838,194.169662 389.101593,186.181320   C403.320221,172.597626 413.627991,156.298416 419.718750,137.540909   C423.118195,127.071831 425.709167,116.319672 421.850555,105.424995   C420.814331,102.499176 418.285614,99.951401 416.021790,97.642044   C411.205353,92.728836 404.494904,92.579506 398.378967,92.222458   C392.655487,91.888321 386.823792,93.406708 381.039734,94.109802  z"/>
<path fill="#C57A44" opacity="1.000000" stroke="none" d=" M319.809021,133.889359   C291.159241,145.332260 261.328949,151.239029 230.609268,153.206223   C192.411835,155.652283 154.520004,154.125610 117.192612,144.953278   C110.102478,143.211029 103.157944,140.879669 96.134514,138.860901   C93.283813,138.041504 90.401764,137.331100 87.162201,136.005478   C86.198982,135.269699 85.607552,135.099548 85.016113,134.929413   C85.016113,134.929413 85.007668,134.995407 84.832756,134.710266   C83.806511,134.207870 82.955170,133.990646 82.103828,133.773422   C82.103828,133.773422 82.047180,133.899887 81.928757,133.601776   C81.218040,133.166595 80.625748,133.029541 80.033447,132.892502   C80.033447,132.892502 80.014626,132.974487 79.866745,132.672775   C78.884735,132.132950 78.050613,131.894852 77.216484,131.656738   C77.216484,131.656738 77.262611,131.557404 77.258423,131.501495   C73.886253,129.635956 70.488373,127.879570 67.155289,126.007812   C49.316483,115.990067 45.792458,95.700432 59.222363,80.306564   C72.610985,64.960007 90.112938,56.305523 109.033997,50.169605   C129.241776,43.616421 150.098450,40.443302 171.246368,38.895588   C194.561234,37.189293 217.849457,37.288971 241.064987,40.050892   C269.807922,43.470406 298.062469,48.971127 323.226135,64.293953   C330.107269,68.484047 336.506439,73.868996 342.099762,79.692116   C356.718353,94.911354 353.060150,116.068970 334.565094,126.289665   C333.400360,126.933327 332.264709,127.629669 330.910950,128.588593   C330.706360,128.875687 330.361725,128.941803 329.943939,129.038177   C329.307587,129.393570 329.088989,129.652557 328.870422,129.911545   C328.870422,129.911545 328.954742,129.923553 328.600952,129.897568   C327.109222,130.515778 325.971313,131.159973 324.833405,131.804169   C324.833405,131.804169 324.930878,131.900497 324.579376,131.843994   C323.478546,132.191147 322.729187,132.594818 321.979858,132.998505   C321.979858,132.998505 322.001190,133.006836 321.692322,132.995209   C320.858612,133.285507 320.333832,133.587433 319.809021,133.889359  M187.782120,75.031364   C191.609283,75.021988 195.436569,75.029243 199.263580,74.999542   C205.801178,74.948799 208.068954,72.860497 208.024918,66.973221   C207.987228,61.935143 205.649429,59.796631 199.388641,60.035728   C186.643860,60.522449 173.808136,60.529907 161.199493,62.181923   C146.481827,64.110275 131.923019,67.380333 117.386520,70.494141   C112.085869,71.629585 109.837776,76.099976 111.126762,80.692398   C112.228119,84.616280 116.580826,86.264244 121.757164,85.273262   C136.847122,82.384346 151.947968,79.530510 167.102005,77.008202   C173.608276,75.925262 180.256424,75.694878 187.782120,75.031364  z"/>
<path fill="#FDAA2F" opacity="1.000000" stroke="none" d=" M402.123810,356.909485   C401.965088,356.995789 401.977997,356.501221 401.998169,356.254822   C402.170227,356.179688 402.339355,356.339996 402.460602,356.530762   C402.487640,356.573303 402.346313,356.722870 402.123810,356.909485  z"/>
<path fill="#FDAA2F" opacity="1.000000" stroke="none" d=" M401.190918,357.879822   C401.161560,357.726654 401.354095,357.459015 401.771667,357.080566   C401.884064,357.295135 401.689453,357.560333 401.190918,357.879822  z"/>
<path fill="#FDAA2F" opacity="1.000000" stroke="none" d=" M400.193848,358.878418   C400.160492,358.720825 400.350128,358.451599 400.766968,358.075623   C400.887207,358.296692 400.694794,358.562683 400.193848,358.878418  z"/>
<path fill="#FDAA2F" opacity="1.000000" stroke="none" d=" M399.196411,359.877838   C399.159149,359.716125 399.345551,359.445648 399.760925,359.072815   C399.888824,359.300110 399.698883,359.566315 399.196411,359.877838  z"/>
<path fill="#FDAA2F" opacity="1.000000" stroke="none" d=" M398.197815,360.877014   C398.055847,360.643524 398.240448,360.373138 398.757446,360.072998   C398.888092,360.302246 398.699615,360.567871 398.197815,360.877014  z"/>
<path fill="#FDAA2F" opacity="1.000000" stroke="none" d=" M397.201782,361.875000   C397.054565,361.638153 397.236969,361.368103 397.755005,361.072174   C397.888672,361.303528 397.702271,361.568695 397.201782,361.875000  z"/>
<path fill="#C5D3DD" opacity="1.000000" stroke="none" d=" M325.196533,131.867615   C325.971313,131.159973 327.109222,130.515778 328.586914,129.857361   C327.804352,130.539108 326.682007,131.235077 325.196533,131.867615  z"/>
<path fill="#C5D3DD" opacity="1.000000" stroke="none" d=" M322.327393,133.013031   C322.729187,132.594818 323.478546,132.191147 324.559753,131.778336   C324.152740,132.188644 323.413818,132.608093 322.327393,133.013031  z"/>
<path fill="#C5D3DD" opacity="1.000000" stroke="none" d=" M82.257889,134.086029   C82.955170,133.990646 83.806511,134.207870 84.859650,134.690674   C84.178291,134.770386 83.295128,134.584503 82.257889,134.086029  z"/>
<path fill="#C5D3DD" opacity="1.000000" stroke="none" d=" M77.320877,131.996048   C78.050613,131.894852 78.884735,132.132950 79.901169,132.648605   C79.197403,132.729218 78.311333,132.532288 77.320877,131.996048  z"/>
<path fill="#C5D3DD" opacity="1.000000" stroke="none" d=" M85.171387,135.188995   C85.607552,135.099548 86.198982,135.269699 86.894958,135.737976   C86.441887,135.840271 85.884270,135.644440 85.171387,135.188995  z"/>
<path fill="#C5D3DD" opacity="1.000000" stroke="none" d=" M320.129852,133.916916   C320.333832,133.587433 320.858612,133.285507 321.695435,132.984253   C321.488525,133.304764 320.969604,133.624619 320.129852,133.916916  z"/>
<path fill="#C5D3DD" opacity="1.000000" stroke="none" d=" M80.194824,133.167511   C80.625748,133.029541 81.218040,133.166595 81.982788,133.558411   C81.555573,133.689621 80.955887,133.566071 80.194824,133.167511  z"/>
<path fill="#C5D3DD" opacity="1.000000" stroke="none" d=" M329.115906,129.864624   C329.088989,129.652557 329.307587,129.393570 329.795776,129.132172   C329.911469,129.441727 329.676819,129.671036 329.115906,129.864624  z"/>
<path fill="#ffffff" opacity="1.000000" stroke="none" d=" M381.021851,94.571259   C386.823792,93.406708 392.655487,91.888321 398.378967,92.222458   C404.494904,92.579506 411.205353,92.728836 416.021790,97.642044   C418.285614,99.951401 420.814331,102.499176 421.850555,105.424995   C425.709167,116.319672 423.118195,127.071831 419.718750,137.540909   C413.627991,156.298416 403.320221,172.597626 389.101593,186.181320   C380.739838,194.169662 371.547363,201.288437 362.382782,208.841095   C363.843994,202.943161 365.926178,197.069901 367.402069,191.048080   C370.761047,177.343109 374.027222,163.608627 376.953888,149.806168   C380.781281,131.755676 381.457214,113.424530 381.021851,94.571259  z"/>
<path fill="#AC5E2E" opacity="1.000000" stroke="none" d=" M187.311127,75.054260   C180.256424,75.694878 173.608276,75.925262 167.102005,77.008202   C151.947968,79.530510 136.847122,82.384346 121.757164,85.273262   C116.580826,86.264244 112.228119,84.616280 111.126762,80.692398   C109.837776,76.099976 112.085869,71.629585 117.386520,70.494141   C131.923019,67.380333 146.481827,64.110275 161.199493,62.181923   C173.808136,60.529907 186.643860,60.522449 199.388641,60.035728   C205.649429,59.796631 207.987228,61.935143 208.024918,66.973221   C208.068954,72.860497 205.801178,74.948799 199.263580,74.999542   C195.436569,75.029243 191.609283,75.021988 187.311127,75.054260  z"/>
</svg>